<svg width="32" height="32" viewBox="0 0 32 32" fill="none" xmlns="http://www.w3.org/2000/svg">
<g>
<path d="M5.08146 29.0152V16.1959L2.90459 17.9696L0.223816 20.1263V18.8565L5.32334 14.9462H6.0288V29.0152H5.08146ZM0.223816 29.0152V28.1082H8.99177V29.0152H0.223816Z"/>
<path d="M16.11 19.7433C16.9969 19.7433 17.783 19.9382 18.4683 20.3279C19.1536 20.7041 19.6911 21.2416 20.0808 21.9404C20.4839 22.6257 20.6855 23.4319 20.6855 24.3591C20.6855 25.3401 20.4839 26.2001 20.0808 26.9391C19.6911 27.6647 19.1335 28.2358 18.4078 28.6524C17.6822 29.0555 16.8289 29.2571 15.848 29.2571C14.8939 29.2571 14.0407 28.9883 13.2882 28.4508C12.5357 27.9133 11.9444 27.1474 11.5144 26.153C11.0844 25.1452 10.8694 23.9358 10.8694 22.5249C10.8694 21.0065 11.0911 19.6627 11.5346 18.4937C11.9915 17.3112 12.6297 16.384 13.4494 15.7121C14.2691 15.0402 15.2232 14.7043 16.3116 14.7043C16.8491 14.7043 17.3396 14.7782 17.783 14.926C18.2264 15.0738 18.6161 15.2888 18.9521 15.571C19.288 15.8532 19.5635 16.2026 19.7785 16.6191C20.0069 17.0223 20.1614 17.4926 20.2421 18.0301H19.2343C19.0999 17.2507 18.7774 16.6527 18.2668 16.2362C17.7561 15.8196 17.091 15.6113 16.2713 15.6113C15.3575 15.6113 14.5782 15.8935 13.9332 16.4579C13.2882 17.0223 12.791 17.8151 12.4416 18.8363C12.0922 19.8441 11.9041 21.0266 11.8772 22.3838C12.2535 21.5507 12.8179 20.9057 13.5704 20.4488C14.3363 19.9785 15.1829 19.7433 16.11 19.7433ZM15.8883 28.35C16.6408 28.35 17.2993 28.1888 17.8636 27.8663C18.428 27.5304 18.8647 27.0735 19.1738 26.4957C19.4963 25.9044 19.6575 25.2326 19.6575 24.4801C19.6575 23.7276 19.503 23.0624 19.1939 22.4846C18.8983 21.9068 18.4818 21.4566 17.9443 21.1341C17.4068 20.8116 16.7819 20.6504 16.0697 20.6504C14.9679 20.6504 14.0608 20.9662 13.3486 21.5977C12.6499 22.2293 12.1863 23.0221 11.9579 23.9761C12.146 25.293 12.5894 26.3546 13.2882 27.1608C14.0004 27.9536 14.8671 28.35 15.8883 28.35Z"/>
<path d="M27.0781 29.2571C26.2047 29.2571 25.4388 29.0958 24.7803 28.7733C24.1219 28.4508 23.5978 28.0007 23.2082 27.4229C22.8319 26.8316 22.6236 26.1597 22.5833 25.4072H23.5911C23.6986 26.2672 24.0346 26.9727 24.5989 27.5236C25.1767 28.0746 26.0032 28.35 27.0781 28.35C27.8306 28.35 28.4824 28.1821 29.0333 27.8461C29.5977 27.4968 30.0344 27.013 30.3435 26.3949C30.6525 25.7768 30.807 25.0579 30.807 24.2382C30.807 23.1632 30.4711 22.3032 29.7992 21.6582C29.1408 20.9997 28.2674 20.6705 27.1789 20.6705C26.5071 20.6705 25.8621 20.8452 25.2439 21.1946C24.6258 21.5305 24.1017 21.9941 23.6717 22.5854H22.7446L23.8935 14.9462H31.2505V15.8532H24.6392L23.7725 21.5574C24.2025 21.0199 24.74 20.5899 25.385 20.2674C26.0435 19.9315 26.6885 19.7635 27.32 19.7635C28.2203 19.7635 29.0064 19.9516 29.6783 20.3279C30.3636 20.7041 30.8944 21.2282 31.2706 21.9001C31.6469 22.5585 31.835 23.3379 31.835 24.2382C31.835 25.2326 31.6335 26.1127 31.2303 26.8786C30.8406 27.6311 30.2897 28.2157 29.5775 28.6322C28.8653 29.0488 28.0322 29.2571 27.0781 29.2571Z"/>
<path d="M4.16655 11.5557C3.4017 11.5557 2.71765 11.3779 2.11439 11.0224C1.5219 10.6669 1.05868 10.1714 0.724737 9.53581C0.39079 8.90023 0.223816 8.17847 0.223816 7.37053C0.223816 6.5626 0.39079 5.84084 0.724737 5.20526C1.06946 4.55891 1.53806 4.05799 2.13055 3.7025C2.73381 3.33623 3.41786 3.1531 4.18271 3.1531C4.93679 3.1531 5.61007 3.33623 6.20255 3.7025C6.80581 4.05799 7.27442 4.55352 7.60837 5.1891C7.95309 5.82468 8.12545 6.54644 8.12545 7.35438C8.12545 8.16231 7.95309 8.88407 7.60837 9.51965C7.27442 10.1552 6.80581 10.6561 6.20255 11.0224C5.61007 11.3779 4.9314 11.5557 4.16655 11.5557ZM4.18271 10.6831C5.07683 10.6831 5.7932 10.3761 6.33182 9.76203C6.88122 9.148 7.15592 8.34545 7.15592 7.35438C7.15592 6.69725 7.03204 6.12092 6.78427 5.62539C6.5365 5.11908 6.1864 4.72588 5.73395 4.4458C5.28151 4.16571 4.76443 4.02567 4.18271 4.02567C3.59022 4.02567 3.06776 4.16571 2.61531 4.4458C2.16287 4.72588 1.81276 5.12447 1.56499 5.64155C1.31722 6.14785 1.19334 6.72418 1.19334 7.37053C1.19334 8.01688 1.31722 8.59321 1.56499 9.09952C1.81276 9.59506 2.16287 9.98287 2.61531 10.263C3.06776 10.543 3.59022 10.6831 4.18271 10.6831Z"/>
<path d="M12.8156 3.18542C13.5589 3.18542 14.1891 3.37394 14.7061 3.75097C15.234 4.11724 15.5656 4.56919 15.8857 5.23758C16.1455 5.77995 16.1954 6.203 16.1962 6.80438C16.1971 7.45513 16.1335 7.68713 15.8211 8.3227C15.5087 8.95828 15.0562 9.4592 14.4637 9.82547C13.8713 10.181 13.1657 10.3587 12.347 10.3587C12.0776 10.3587 11.4367 10.2887 10.4241 10.1486V12.0045H9.50301V5.70618C9.50301 4.85515 9.27679 4.23035 8.82434 3.83177L9.47069 3.18542C9.65383 3.31469 9.83157 3.49243 10.0039 3.71866C10.1763 3.94488 10.3002 4.19265 10.3756 4.46196C10.8388 3.61093 11.6521 3.18542 12.8156 3.18542ZM12.2662 9.48613C13.2788 9.48613 14.0382 9.19528 14.5445 8.61356C15.0616 8.02107 15.305 7.57295 15.3202 6.80438C15.3349 6.05804 15.0993 5.64693 14.6577 5.01136C14.2268 4.37578 13.6235 4.05799 12.8479 4.05799C12.2338 4.05799 11.6844 4.24651 11.1997 4.62355C10.7257 5.00058 10.4672 5.49073 10.4241 6.09399V9.34071C11.4151 9.43766 12.0292 9.48613 12.2662 9.48613Z"/>
<path d="M20.8427 11.5557C20.0348 11.5557 19.3507 11.3887 18.7905 11.0547C18.2304 10.7208 17.8049 10.263 17.514 9.68124C17.2339 9.08875 17.0939 8.42085 17.0939 7.67755C17.0939 6.94502 17.2285 6.23404 17.4978 5.54459C17.7779 4.85515 18.1927 4.2896 18.7421 3.84793C19.3022 3.40625 19.9809 3.18542 20.7781 3.18542C21.3059 3.18542 21.7961 3.28776 22.2485 3.49243C22.701 3.69711 23.0564 3.98797 23.315 4.36501C23.5843 4.74204 23.719 5.17833 23.719 5.67387C23.719 6.47103 23.3796 7.09045 22.701 7.53212C22.0223 7.96302 21.0851 8.17309 19.8893 8.16231L18.1119 8.14615C18.2088 8.97564 18.4835 9.60583 18.936 10.0367C19.3992 10.4676 20.0348 10.6831 20.8427 10.6831C21.3275 10.6831 21.7745 10.6184 22.1839 10.4892C22.604 10.3491 23.008 10.1391 23.3958 9.85898L23.8805 10.5053C23.4712 10.8285 23.0026 11.087 22.4747 11.281C21.9577 11.4641 21.4136 11.5557 20.8427 11.5557ZM20.0994 7.32206C21.8661 7.32206 22.7494 6.76727 22.7494 5.65771C22.7494 5.11908 22.5609 4.7205 22.1839 4.46196C21.8176 4.19265 21.3652 4.05799 20.8265 4.05799C20.2233 4.05799 19.7116 4.23035 19.2915 4.57507C18.8821 4.91979 18.5751 5.3453 18.3704 5.85161C18.1657 6.35792 18.0634 6.84807 18.0634 7.32206H20.0994Z"/>
<path d="M25.2377 5.69002C25.2377 4.86054 25.0168 4.22496 24.5752 3.78329L25.1892 3.18542C25.6632 3.51936 25.9648 4.00413 26.0941 4.6397C26.4496 4.1334 26.8482 3.76175 27.2898 3.52475C27.7315 3.27698 28.2647 3.1531 28.8895 3.1531C29.7298 3.1531 30.2744 3.46071 30.7376 3.91315C31.2116 4.3656 31.5503 5.53442 31.5396 6.38545L31.4911 11.3941H30.5539L30.5701 6.56319C30.5701 5.27049 29.9829 4.02567 28.8087 4.02567C28.2593 4.02567 27.7907 4.16033 27.4029 4.42964C27.0259 4.68818 26.6273 5.10292 26.2072 5.67387V11.3941H25.2377V5.69002Z"/>
</g>
<style>
  g {
    fill: #333;
  }
  @media (prefers-color-scheme: dark) {
    g {
      fill: #fff;
    }
  }
</style>
</svg>
