<svg width="48" height="48" viewBox="0 0 48 48" fill="none" xmlns="http://www.w3.org/2000/svg">
<path d="M10.1495 40.4285V24.2105L7.39547 26.4545L4.00397 29.183V27.5765L10.4555 22.6295H11.348V40.4285H10.1495ZM4.00397 40.4285V39.281H15.0965V40.4285H4.00397Z" fill="black"/>
<path d="M24.1019 28.6985C25.2239 28.6985 26.2184 28.945 27.0854 29.438C27.9524 29.914 28.6324 30.594 29.1254 31.478C29.6354 32.345 29.8904 33.365 29.8904 34.538C29.8904 35.779 29.6354 36.867 29.1254 37.802C28.6324 38.72 27.9269 39.4425 27.0089 39.9695C26.0909 40.4795 25.0114 40.7345 23.7704 40.7345C22.5634 40.7345 21.4839 40.3945 20.5319 39.7145C19.5799 39.0345 18.8319 38.0655 18.2879 36.8075C17.7439 35.5325 17.4719 34.0025 17.4719 32.2175C17.4719 30.2965 17.7524 28.5965 18.3134 27.1175C18.8914 25.6215 19.6989 24.4485 20.7359 23.5985C21.7729 22.7485 22.9799 22.3235 24.3569 22.3235C25.0369 22.3235 25.6574 22.417 26.2184 22.604C26.7794 22.791 27.2724 23.063 27.6974 23.42C28.1224 23.777 28.4709 24.219 28.7429 24.746C29.0319 25.256 29.2274 25.851 29.3294 26.531H28.0544C27.8844 25.545 27.4764 24.7885 26.8304 24.2615C26.1844 23.7345 25.3429 23.471 24.3059 23.471C23.1499 23.471 22.1639 23.828 21.3479 24.542C20.5319 25.256 19.9029 26.259 19.4609 27.551C19.0189 28.826 18.7809 30.322 18.7469 32.039C19.2229 30.985 19.9369 30.169 20.8889 29.591C21.8579 28.996 22.9289 28.6985 24.1019 28.6985ZM23.8214 39.587C24.7734 39.587 25.6064 39.383 26.3204 38.975C27.0344 38.55 27.5869 37.972 27.9779 37.241C28.3859 36.493 28.5899 35.643 28.5899 34.691C28.5899 33.739 28.3944 32.8975 28.0034 32.1665C27.6294 31.4355 27.1024 30.866 26.4224 30.458C25.7424 30.05 24.9519 29.846 24.0509 29.846C22.6569 29.846 21.5094 30.2455 20.6084 31.0445C19.7244 31.8435 19.1379 32.8465 18.8489 34.0535C19.0869 35.7195 19.6479 37.0625 20.5319 38.0825C21.4329 39.0855 22.5294 39.587 23.8214 39.587Z" fill="black"/>
<path d="M37.9779 40.7345C36.8729 40.7345 35.9039 40.5305 35.0709 40.1225C34.2379 39.7145 33.5749 39.145 33.0819 38.414C32.6059 37.666 32.3424 36.816 32.2914 35.864H33.5664C33.7024 36.952 34.1274 37.8445 34.8414 38.5415C35.5724 39.2385 36.6179 39.587 37.9779 39.587C38.9299 39.587 39.7544 39.3745 40.4514 38.9495C41.1654 38.5075 41.7179 37.8955 42.1089 37.1135C42.4999 36.3315 42.6954 35.422 42.6954 34.385C42.6954 33.025 42.2704 31.937 41.4204 31.121C40.5874 30.288 39.4824 29.8715 38.1054 29.8715C37.2554 29.8715 36.4394 30.0925 35.6574 30.5345C34.8754 30.9595 34.2124 31.546 33.6684 32.294H32.4954L33.9489 22.6295H43.2564V23.777H34.8924L33.7959 30.9935C34.3399 30.3135 35.0199 29.7695 35.8359 29.3615C36.6689 28.9365 37.4849 28.724 38.2839 28.724C39.4229 28.724 40.4174 28.962 41.2674 29.438C42.1344 29.914 42.8059 30.577 43.2819 31.427C43.7579 32.26 43.9959 33.246 43.9959 34.385C43.9959 35.643 43.7409 36.7565 43.2309 37.7255C42.7379 38.6775 42.0409 39.417 41.1399 39.944C40.2389 40.471 39.1849 40.7345 37.9779 40.7345Z" fill="black"/>
<path d="M8.992 18.3401C8.02437 18.3401 7.15896 18.1153 6.39577 17.6655C5.6462 17.2158 5.06018 16.5889 4.63769 15.7848C4.21521 14.9807 4.00397 14.0676 4.00397 13.0455C4.00397 12.0233 4.21521 11.1102 4.63769 10.3061C5.0738 9.48842 5.66664 8.85469 6.41621 8.40495C7.17941 7.94158 8.04482 7.7099 9.01244 7.7099C9.96643 7.7099 10.8182 7.94158 11.5678 8.40495C12.331 8.85469 12.9238 9.4816 13.3463 10.2857C13.7824 11.0898 14.0005 12.0029 14.0005 13.025C14.0005 14.0472 13.7824 14.9603 13.3463 15.7643C12.9238 16.5684 12.331 17.2021 11.5678 17.6655C10.8182 18.1153 9.95962 18.3401 8.992 18.3401ZM9.01244 17.2362C10.1436 17.2362 11.0499 16.8478 11.7313 16.071C12.4264 15.2942 12.7739 14.2788 12.7739 13.025C12.7739 12.1937 12.6172 11.4646 12.3037 10.8376C11.9903 10.1971 11.5473 9.69966 10.9749 9.34532C10.4025 8.99098 9.74838 8.81381 9.01244 8.81381C8.26287 8.81381 7.60189 8.99098 7.02949 9.34532C6.4571 9.69966 6.01417 10.2039 5.70071 10.8581C5.38726 11.4986 5.23053 12.2277 5.23053 13.0455C5.23053 13.8632 5.38726 14.5923 5.70071 15.2328C6.01417 15.8597 6.4571 16.3504 7.02949 16.7047C7.60189 17.059 8.26287 17.2362 9.01244 17.2362Z" fill="black"/>
<path d="M19.934 7.75079C20.8744 7.75079 21.6716 7.98928 22.3258 8.46628C22.9936 8.92965 23.4131 9.50142 23.8181 10.347C24.1468 11.0332 24.2099 11.5684 24.2109 12.3292C24.212 13.1525 24.1316 13.446 23.7364 14.2501C23.3411 15.0541 22.7687 15.6879 22.0192 16.1512C21.2696 16.601 20.3769 16.8258 19.3412 16.8258C19.0005 16.8258 18.1896 16.7373 16.9085 16.5601V18.908H15.7433V10.9399C15.7433 9.8632 15.4571 9.07275 14.8847 8.5685L15.7024 7.75079C15.9341 7.91433 16.1589 8.1392 16.377 8.4254C16.595 8.71159 16.7518 9.02505 16.8472 9.36576C17.4332 8.28911 18.4621 7.75079 19.934 7.75079ZM19.239 15.7219C20.52 15.7219 21.4808 15.354 22.1214 14.618C22.7756 13.8685 23.0835 13.3015 23.1026 12.3292C23.1212 11.385 22.8233 10.8649 22.2645 10.0608C21.7193 9.25673 20.9562 8.85469 19.9749 8.85469C19.1981 8.85469 18.503 9.09319 17.8897 9.57019C17.2901 10.0472 16.963 10.6673 16.9085 11.4305V15.538C18.1623 15.6606 18.9391 15.7219 19.239 15.7219Z" fill="black"/>
<path d="M30.0893 18.3401C29.0672 18.3401 28.2018 18.1289 27.4931 17.7064C26.7844 17.2839 26.2461 16.7047 25.8781 15.9688C25.5238 15.2192 25.3466 14.3742 25.3466 13.4339C25.3466 12.5071 25.5169 11.6076 25.8577 10.7354C26.212 9.8632 26.7367 9.14771 27.4317 8.58894C28.1404 8.03017 28.999 7.75079 30.0075 7.75079C30.6753 7.75079 31.2954 7.88026 31.8678 8.1392C32.4402 8.39814 32.89 8.76611 33.217 9.24311C33.5578 9.7201 33.7281 10.2721 33.7281 10.899C33.7281 11.9075 33.2988 12.6911 32.4402 13.2499C31.5816 13.795 30.3959 14.0608 28.8832 14.0472L26.6345 14.0267C26.7571 15.0761 27.1047 15.8734 27.6771 16.4185C28.2631 16.9636 29.0672 17.2362 30.0893 17.2362C30.7026 17.2362 31.2682 17.1544 31.7861 16.9909C32.3176 16.8137 32.8286 16.548 33.3193 16.1936L33.9325 17.0113C33.4147 17.4202 32.8218 17.7473 32.154 17.9926C31.4999 18.2243 30.8116 18.3401 30.0893 18.3401ZM29.1489 12.9841C31.384 12.9841 32.5015 12.2823 32.5015 10.8785C32.5015 10.1971 32.263 9.69285 31.7861 9.36576C31.3227 9.02505 30.7503 8.85469 30.0689 8.85469C29.3057 8.85469 28.6583 9.07275 28.1268 9.50886C27.6089 9.94497 27.2205 10.4833 26.9616 11.1238C26.7026 11.7644 26.5732 12.3845 26.5732 12.9841H29.1489Z" fill="black"/>
<path d="M35.6495 10.9194C35.6495 9.87002 35.3701 9.06594 34.8113 8.50717L35.5881 7.75079C36.1878 8.17327 36.5694 8.78655 36.7329 9.59063C37.1827 8.95009 37.6869 8.47991 38.2457 8.18008C38.8044 7.86663 39.4791 7.7099 40.2695 7.7099C41.3325 7.7099 42.0215 8.09906 42.6075 8.67146C43.2071 9.24385 43.6357 10.7226 43.6221 11.7992L43.5608 18.1357H42.3751L42.3956 12.0241C42.3956 10.3887 41.6528 8.81381 40.1673 8.81381C39.4722 8.81381 38.8794 8.98416 38.3888 9.32488C37.9118 9.65196 37.4075 10.1767 36.876 10.899V18.1357H35.6495V10.9194Z" fill="black"/>
</svg>
